<svg width="81" height="81" viewBox="0 0 81 81" fill="none" xmlns="http://www.w3.org/2000/svg">
<g clip-path="url(#clip0_2_71)">
<path d="M60.75 67.5H13.5V20.25H43.875V13.5H13.5C9.7875 13.5 6.75 16.5375 6.75 20.25V67.5C6.75 71.2125 9.7875 74.25 13.5 74.25H60.75C64.4625 74.25 67.5 71.2125 67.5 67.5V37.125H60.75V67.5ZM34.4588 56.8012L27.8438 48.8363L18.5625 60.75H55.6875L43.74 44.8537L34.4588 56.8012ZM67.5 13.5V3.375H60.75V13.5H50.625C50.6587 13.5337 50.625 20.25 50.625 20.25H60.75V30.3412C60.7837 30.375 67.5 30.3412 67.5 30.3412V20.25H77.625V13.5H67.5Z" fill="#BCB081"/>
</g>
<defs>
<clipPath id="clip0_2_71">
<rect width="81" height="81" fill="white"/>
</clipPath>
</defs>
</svg>
